# xmcd
#
# Track frame offsets: 
#        150
#        12653
#        24171
#        36800
#        49999
#        62755
#        75564
#        86117
#        99827
#        114364
#        126734
#        136707
#        147405
#        160442
#        172279
#
# Disc length: 2461 seconds
#
# Revision: 5
# Processed by: cddbd v1.5.2PL0 Copyright (c) Steve Scherf et al.
# Submitted via: ExactAudioCopy v0.99pb5
#
DISCID=cf099b0f
DTITLE=Various Artist - Simply Country - Disc 1
DYEAR=2004
DGENRE=Country
TTITLE0=Hank Williams - I Saw The Light
TTITLE1=Patsy Cline - Walkin' After Midnight
TTITLE2=Johnny Cash - Folsom Prison Blues
TTITLE3=Kenny Rogers - Ruby, Don't Take Your Love To Town
TTITLE4=Charley Pride - Crystal Chandeliers [Live]
TTITLE5=Lynn Anderson - Rose Garden
TTITLE6=Roger Miller - King Of The Road
TTITLE7=George Jones - Wedding Bells
TTITLE8=Loretta Lynn - Coal Miner's Daughter [Live]
TTITLE9=Freddy Fender - Wasted Days And Wasted Nights [Live]
TTITLE10=Billie Jo Spears - My Arms Stay Open Late
TTITLE11=Hank Locklin - Please Help Me, I'm Falling
TTITLE12=Kitty Wells - Makin' Believe
TTITLE13=Waylon Jennings - Crying
TTITLE14=Willie Nelson - The Shelter Of Your Arms
EXTD=YEAR: 2004
EXTT0=
EXTT1=
EXTT2=
EXTT3=
EXTT4=
EXTT5=
EXTT6=
EXTT7=
EXTT8=
EXTT9=
EXTT10=
EXTT11=
EXTT12=
EXTT13=
EXTT14=
PLAYORDER=
